<?xml version="1.0" encoding="utf-8"?>
<!-- Generator: Adobe Illustrator 26.3.1, SVG Export Plug-In . SVG Version: 6.00 Build 0)  -->
<svg version="1.1" id="Слой_1" xmlns="http://www.w3.org/2000/svg" xmlns:xlink="http://www.w3.org/1999/xlink" x="0px" y="0px"
	 viewBox="0 0 400 400" style="enable-background:new 0 0 400 400;" xml:space="preserve">
<style type="text/css">
	.st0{fill:#AEAFB0;stroke:#AEAFB0;stroke-miterlimit:10;}
	.st1{fill:#2E353A;stroke:#AEAFB0;stroke-miterlimit:10;}
	.st2{fill:#F5F6F8;stroke:#AEAFB0;stroke-miterlimit:10;}
	.st3{fill:#AEAFB0;}
	.st4{fill:#F5F6F8;}
	.st5{fill:#FFFFFF;}
	.st6{fill:#A6A6A6;}
</style>
<path class="st0" d="M46.7,232.6h-3.7L27.8,263h4.8l14-12V232.6z"/>
<path class="st0" d="M28.7,263h-4.8L39,232.6h4.8L28.7,263z"/>
<path class="st1" d="M293.2,225.6h3.7L312,256h-4.8l-14-12V225.6z"/>
<path class="st1" d="M311.2,256h4.8l-15.1-30.4H296L311.2,256z"/>
<path class="st0" d="M331.5,2H9v232h322.5V2z"/>
<path class="st2" d="M326,8H14v219h312V8z"/>
<path class="st3" d="M382.3,81H249.4c-1.8,0-3.5,0.4-5.2,1.2c-1.6,0.7-3.1,1.8-4.4,3.2c-1.2,1.4-2.2,3-2.9,4.7c-0.7,1.8-1,3.6-1,5.5
	v291.8c0,3.8,1.4,7.5,3.9,10.3c2.5,2.7,6,4.3,9.6,4.3h132.9c3.6,0,7-1.6,9.6-4.3c2.5-2.7,3.9-6.4,3.9-10.3V95.6
	c0-3.8-1.4-7.5-3.9-10.3C389.4,82.6,385.9,81,382.3,81z M387.4,378.4c0,7.7-5.4,13.9-12,13.9H256.5c-6.7,0-12.1-6.2-12.1-13.9V106.7
	c0-15.6,5.4-16.4,12.1-16.4h23.8c1.4,0,2.5,1.7,2.5,3.8v0.9c0,4.9,2.5,4.9,5.6,4.9h55.1c3.1,0,5.6,0,5.6-4.9V94
	c0-2.1,1.1-3.8,2.5-3.8h23.8c6.6,0,12,2.1,12,16.4L387.4,378.4z"/>
<path class="st4" d="M387.4,106.9v271.7c0,7.7-5.4,13.9-12,13.9H256.5c-6.7,0-12.1-6.2-12.1-13.9V106.9c0-15.6,5.4-16.4,12.1-16.4
	h23.8c1.4,0,2.5,1.7,2.5,3.8v0.9c0,4.9,2.5,4.9,5.6,4.9h55c3.1,0,5.6,0,5.6-4.9v-0.9c0-2.1,1.1-3.8,2.5-3.8h23.8
	C382,90.5,387.4,92.6,387.4,106.9z"/>
<path class="st5" d="M323.4,93.7h-15c-0.2,0-0.5-0.1-0.7-0.3c-0.2-0.2-0.3-0.4-0.3-0.7c0-0.3,0.1-0.5,0.3-0.7
	c0.2-0.2,0.4-0.3,0.7-0.3h15c0.2,0,0.5,0.1,0.7,0.3c0.2,0.2,0.3,0.4,0.3,0.7c0,0.3-0.1,0.5-0.3,0.7
	C323.9,93.6,323.6,93.7,323.4,93.7z"/>
<path class="st6" d="M276.2,96.3l-0.2,0.2l-0.1,0.1c-0.6-0.6-1.4-1-2.2-1c-0.8,0-1.6,0.4-2.2,1c0,0-0.1-0.1-0.1-0.1
	c-0.1-0.1-0.1-0.2-0.2-0.2c0.1-0.1,0.2-0.2,0.3-0.3c0.2-0.2,0.4-0.3,0.7-0.5c0.3-0.2,0.6-0.3,0.9-0.3l0.4-0.1h0.4h0.3
	c0.3,0,0.5,0.1,0.8,0.2c0.2,0.1,0.4,0.2,0.6,0.3c0.2,0.1,0.4,0.2,0.5,0.4L276.2,96.3L276.2,96.3z"/>
<path class="st6" d="M272.1,97.5c-0.1-0.1-0.2-0.3-0.4-0.4c0.2-0.3,0.5-0.5,0.8-0.6c0.3-0.1,0.7-0.2,1-0.2c0.3,0,0.7,0.1,1,0.2
	c0.3,0.1,0.6,0.3,0.8,0.6l-0.4,0.4c-0.4-0.4-0.9-0.7-1.5-0.7C273,96.9,272.5,97.1,272.1,97.5z"/>
<path class="st6" d="M274.7,97.9l-0.4,0.4c-0.2-0.2-0.5-0.3-0.8-0.3c-0.3,0-0.6,0.1-0.8,0.3c-0.1-0.1-0.2-0.3-0.4-0.4
	c0.1-0.2,0.3-0.3,0.5-0.4c0.2-0.1,0.4-0.1,0.6-0.1c0.2,0,0.4,0,0.6,0.1C274.4,97.6,274.6,97.7,274.7,97.9z"/>
<path class="st6" d="M273.9,98.6c0,0.1,0,0.2-0.1,0.2c-0.1,0.1-0.1,0.1-0.2,0.1c0,0-0.1,0-0.1,0c0,0-0.1,0-0.1-0.1
	c0,0-0.1-0.1-0.1-0.1c0,0,0-0.1,0-0.1c0-0.1,0-0.2,0.1-0.2c0.1-0.1,0.1-0.1,0.2-0.1c0,0,0.1,0,0.1,0c0,0,0.1,0,0.1,0.1
	c0,0,0.1,0.1,0.1,0.1C273.9,98.6,273.9,98.6,273.9,98.6z"/>
<path class="st6" d="M253.7,97.1c0-0.2,0.1-0.4,0.2-0.6c0.1-0.2,0.3-0.3,0.4-0.4c0.2-0.1,0.4-0.1,0.6-0.1c0.2,0,0.4,0.1,0.5,0.3
	s0.2,0.3,0.3,0.5c0,0.2,0,0.4-0.1,0.6s-0.2,0.3-0.4,0.5c-0.2,0.1-0.3,0.2-0.5,0.2c-0.3,0-0.5-0.1-0.7-0.3
	C253.8,97.6,253.7,97.4,253.7,97.1z"/>
<path class="st6" d="M256.7,97.1c0-0.2,0.1-0.4,0.2-0.6c0.1-0.2,0.3-0.3,0.4-0.4c0.2-0.1,0.4-0.1,0.5-0.1c0.2,0,0.4,0.1,0.5,0.3
	s0.2,0.3,0.3,0.5c0,0.2,0,0.4-0.1,0.6s-0.2,0.3-0.4,0.5c-0.2,0.1-0.3,0.2-0.5,0.2c-0.1,0-0.2,0-0.4-0.1c-0.1-0.1-0.2-0.1-0.3-0.2
	c-0.1-0.1-0.2-0.2-0.2-0.3S256.7,97.2,256.7,97.1z"/>
<path class="st6" d="M259.7,97.1c0-0.2,0.1-0.4,0.2-0.6c0.1-0.2,0.3-0.3,0.4-0.4c0.2-0.1,0.4-0.1,0.5-0.1c0.2,0,0.4,0.1,0.5,0.3
	c0.1,0.1,0.2,0.3,0.3,0.5c0,0.2,0,0.4-0.1,0.6c-0.1,0.2-0.2,0.3-0.4,0.5c-0.2,0.1-0.3,0.2-0.5,0.2c-0.1,0-0.2,0-0.4-0.1
	c-0.1-0.1-0.2-0.1-0.3-0.2c-0.1-0.1-0.2-0.2-0.2-0.3C259.7,97.4,259.7,97.2,259.7,97.1z"/>
<path class="st6" d="M262.7,97.1c0-0.2,0.1-0.4,0.2-0.6c0.1-0.2,0.3-0.3,0.4-0.4c0.2-0.1,0.4-0.1,0.6-0.1c0.2,0,0.4,0.1,0.5,0.3
	c0.1,0.1,0.2,0.3,0.3,0.5c0,0.2,0,0.4-0.1,0.6c-0.1,0.2-0.2,0.3-0.4,0.5c-0.2,0.1-0.3,0.2-0.5,0.2c-0.1,0-0.2,0-0.4-0.1
	c-0.1-0.1-0.2-0.1-0.3-0.2c-0.1-0.1-0.2-0.2-0.2-0.3C262.7,97.4,262.7,97.2,262.7,97.1z"/>
<path class="st6" d="M265.7,97.1c0-0.2,0.1-0.4,0.2-0.6c0.1-0.2,0.3-0.3,0.4-0.4c0.2-0.1,0.4-0.1,0.5-0.1c0.2,0,0.4,0.1,0.5,0.3
	s0.2,0.3,0.3,0.5c0,0.2,0,0.4-0.1,0.6c-0.1,0.2-0.2,0.3-0.4,0.5c-0.2,0.1-0.3,0.2-0.5,0.2c-0.3,0-0.5-0.1-0.7-0.3
	C265.8,97.6,265.7,97.4,265.7,97.1z"/>
<path class="st6" d="M376.6,99.3h-7.7v-3.8h7.7V99.3z M369.3,98.9h6.9v-3h-6.9L369.3,98.9z"/>
</svg>
